HIERARCHY
ROOT Hips
{
  OFFSET 43.0842 91.1655 101.099
  CHANNELS 6 Xposition Yposition Zposition Zrotation Xrotation Yrotation
  JOINT LeftUpLeg
  {
    OFFSET 8.64259 1.95398 -2.38835
    CHANNELS 3 Zrotation Xrotation Yrotation
    JOINT LeftLeg
    {
      OFFSET 43.7702 0 0
      CHANNELS 3 Zrotation Xrotation Yrotation
      JOINT LeftFoot
      {
        OFFSET 40.6238 0 0
        CHANNELS 3 Zrotation Xrotation Yrotation
        JOINT LeftToeBase
        {
          OFFSET 12.7242 0 0
          CHANNELS 3 Zrotation Xrotation Yrotation
          End Site
          {
            OFFSET 0 0 0
          }
        }
      }
    }
  }
  JOINT RightUpLeg
  {
    OFFSET -8.2249 1.95398 -2.59336
    CHANNELS 3 Zrotation Xrotation Yrotation
    JOINT RightLeg
    {
      OFFSET 43.5653 0 0
      CHANNELS 3 Zrotation Xrotation Yrotation
      JOINT RightFoot
      {
        OFFSET 40.6238 0 0
        CHANNELS 3 Zrotation Xrotation Yrotation
        JOINT RightToeBase
        {
          OFFSET 12.7242 0 0
          CHANNELS 3 Zrotation Xrotation Yrotation
          End Site
          {
            OFFSET 0 0 0
          }
        }
      }
    }
  }
  JOINT Spine
  {
    OFFSET 0.165834 0.87714 6.61349
    CHANNELS 3 Zrotation Xrotation Yrotation
    JOINT Spine1
    {
      OFFSET 7.38963 1.71661e-005 0
      CHANNELS 3 Zrotation Xrotation Yrotation
      JOINT Spine2
      {
        OFFSET 11.9445 1.14441e-005 0
        CHANNELS 3 Zrotation Xrotation Yrotation
        JOINT Spine3
        {
          OFFSET 14.7254 4.19617e-005 0
          CHANNELS 3 Zrotation Xrotation Yrotation
          JOINT Spine4
          {
            OFFSET 10.9679 0 0
            CHANNELS 3 Zrotation Xrotation Yrotation
            JOINT RightShoulder
            {
              OFFSET 2.46616 -1.6653 3.69651
              CHANNELS 3 Zrotation Xrotation Yrotation
              JOINT RightArm
              {
                OFFSET 13.0012 0 0
                CHANNELS 3 Zrotation Xrotation Yrotation
                JOINT RightForeArm
                {
                  OFFSET 28.7848 1.52588e-005 0
                  CHANNELS 3 Zrotation Xrotation Yrotation
                  JOINT RightHand
                  {
                    OFFSET 26.5688 1.52588e-005 0
                    CHANNELS 3 Zrotation Xrotation Yrotation
                    End Site
                    {
                      OFFSET 0 0 0
                    }
                  }
                }
              }
            }
            JOINT LeftShoulder
            {
              OFFSET 2.38034 -1.29275 -3.7523
              CHANNELS 3 Zrotation Xrotation Yrotation
              JOINT LeftArm
              {
                OFFSET 16.3182 6.10351e-005 0
                CHANNELS 3 Zrotation Xrotation Yrotation
                JOINT LeftForeArm
                {
                  OFFSET 27.0901 0 0
                  CHANNELS 3 Zrotation Xrotation Yrotation
                  JOINT LeftHand
                  {
                    OFFSET 24.5451 1.52588e-005 0
                    CHANNELS 3 Zrotation Xrotation Yrotation
                    End Site
                    {
                      OFFSET 0 0 0
                    }
                  }
                }
              }
            }
            JOINT Neck
            {
              OFFSET 5.0226 -0.0266342 0
              CHANNELS 3 Zrotation Xrotation Yrotation
              JOINT Head
              {
                OFFSET 6.69364 2.86102e-005 0
                CHANNELS 3 Zrotation Xrotation Yrotation
                End Site
                {
                  OFFSET 0 0 0
                }
              }
            }
          }
        }
      }
    }
  }
}
MOTION
Frames:	17
Frame Time:	0.0333333
-12.9169 90.3147 41.2931 93.9097 -14.9079 91.8836 -172.359 8.49305 97.8821 -34.9249 22.911 -0.205016 66.2561 8.36149 16.1648 37.0198 7.32617 6.45251 171.655 18.5647 81.888 -27.9071 2.59101 0.440575 63.2506 -3.14254 -1.28925 30.0185 -0.408045 -0.824778 0.218366 7.49319 -89.6582 11.8855 0.595212 0.617726 0.214593 0.62181 0.590927 -22.3199 0.382014 0.768037 -2.30727 0.382029 0.768044 92.2728 -52.8099 -96.8112 35.6 54.1651 -48.9071 -15.5607 -17.1688 -107.338 -8.15608 -0.526853 8.6147 -93.7037 -47.7926 72.601 -15.2777 6.55715 -61.0563 2.10348 16.0634 -104.878 8.69534 0.750271 0.155765 -24.3007 -16.8156 -10.5918 -3.39886 -18.0018 -14.66 
-12.7488 90.1174 42.1166 93.6174 -14.2748 91.8669 -172.239 8.90486 98.5763 -35.1123 22.3878 -0.141511 66.9081 8.97162 15.4377 36.8433 7.21293 6.19412 171.37 18.9705 82.2411 -29.358 0.109879 0.731601 64.3378 -4.19888 -3.34081 30.0912 0.0843695 -2.33864 0.179396 7.46347 -89.6393 11.945 0.526728 0.662396 0.273988 0.555363 0.638564 -22.2602 0.303315 0.79007 -2.24752 0.303318 0.790065 92.7901 -52.6858 -96.0614 35.9571 53.8758 -49.2647 -15.436 -17.1735 -107.459 -8.47562 -0.652713 8.36762 -93.5446 -47.5955 72.786 -15.3458 6.70416 -61.1082 1.52367 16.0538 -105.126 8.37861 0.476789 1.99341 -24.1176 -16.7122 -10.7901 -3.58092 -17.8676 -14.4761 
-12.5861 90.0171 43.3182 93.3123 -13.1775 91.9068 -172.036 9.20261 99.5299 -34.75 21.4613 0.0317942 67.3006 9.36197 13.9241 36.7749 7.2599 5.90713 170.946 19.8203 82.6575 -32.196 -1.63027 1.07638 65.155 -4.89293 -3.7524 30.6285 0.318976 -3.9102 0.0979188 7.45958 -89.6296 11.9531 0.369317 0.698783 0.282007 0.399738 0.681834 -22.2517 0.142235 0.777465 -2.23909 0.142239 0.777461 92.9601 -52.2959 -95.8736 36.6639 54.1266 -49.459 -15.4411 -17.3231 -108.398 -8.98281 -0.794497 8.99791 -93.7136 -47.7909 72.5857 -14.7533 6.65158 -61.1489 1.15756 15.703 -104.929 7.79761 0.368828 2.10605 -23.6476 -16.7937 -10.8727 -3.95994 -17.8561 -14.4203 
-12.4809 89.983 44.5993 92.5412 -12.0724 91.7426 -172.024 9.67585 100.291 -33.7418 21.1146 0.175869 66.991 8.99507 12.7728 36.9428 7.24142 6.40963 170.337 20.958 83.3617 -33.6727 2.6263 1.60811 65.8076 -5.3702 -2.08405 32.175 -1.46916 -1.32066 0.0238214 7.41585 -89.6164 12.0408 0.228535 0.740394 0.369708 0.260929 0.729614 -22.1638 -0.00456117 0.774848 -2.15112 -0.00453377 0.774852 93.3169 -52.3943 -95.3221 36.0641 54.2103 -49.0058 -14.9613 -17.0213 -109.42 -9.0054 -0.794715 9.12411 -93.8595 -47.8925 72.3939 -14.44 6.74585 -61.18 1.19975 15.4676 -104.747 7.04701 0.205986 2.38275 -23.4537 -16.733 -11.2056 -3.73411 -17.818 -14.3267 
-12.5142 89.8959 45.7412 90.852 -11.2342 90.8325 -172.814 11.0025 100.181 -32.8889 19.9287 0.384593 66.9991 9.10316 11.5172 36.976 6.4591 8.08815 169.47 23.5216 83.1916 -35.6526 2.10164 2.54497 66.315 -5.52157 -2.33399 31.7478 -1.25903 -1.23074 -0.0790521 7.29172 -89.6009 12.2895 0.0322844 0.793486 0.61829 0.0671621 0.79129 -21.915 -0.207708 0.76651 -1.90235 -0.207687 0.766503 93.7517 -51.7998 -94.7624 35.8226 54.6 -48.5253 -14.53 -17.1252 -111.724 -9.14393 -0.805406 9.81863 -94.2178 -48.3164 71.977 -13.3522 6.93347 -60.961 0.584368 14.7157 -104.848 7.09277 0.0871764 3.33665 -23.1094 -16.8292 -10.8366 -3.54634 -17.8743 -14.5203 
-12.3756 89.9628 46.6882 88.5476 -13.5386 88.6068 -173.365 11.0023 98.2555 -30.6038 15.6276 -0.152314 66.6415 7.99619 11.8654 35.4049 2.89797 10.4355 169.507 27.5833 82.5477 -37.3258 2.37254 2.74201 66.1302 -5.47768 -0.987679 32.8988 -2.22095 -0.245389 -0.0481341 7.16845 -89.4938 12.5356 0.145396 0.993786 0.864335 0.188998 0.986417 -21.6678 -0.15997 0.99155 -1.6552 -0.159988 0.991536 93.9708 -51.8912 -94.4181 33.8609 53.4169 -47.8579 -12.9882 -17.3387 -115.601 -10.2717 -1.15041 11.3154 -94.5231 -48.9096 71.6928 -12.4243 6.51256 -59.0637 0.492591 13.1677 -106.032 5.28139 -0.373167 4.23311 -22.6347 -16.6785 -10.448 -2.12288 -17.7895 -13.4669 
-11.7488 90.0018 47.2486 86.363 -21.1612 85.7891 -172.75 8.50291 96.5232 -27.3741 8.88361 -1.92728 65.7213 4.29372 13.7749 35.6375 3.3735 10.2158 171.346 32.1628 82.6304 -39.1415 2.17906 1.89265 65.3217 -5.31716 1.1616 32.9686 -2.81526 1.52605 0.0326237 7.12366 -89.497 12.6239 0.304862 0.969708 0.952622 0.347238 0.955347 -21.5797 -0.000671086 1.01649 -1.56708 -0.000658756 1.0165 94.4939 -50.6901 -93.8021 29.5086 43.9156 -44.617 -10.2888 -14.4004 -121.156 -10.5345 -1.16529 13.2959 -94.9451 -49.671 71.2898 -10.9516 5.74797 -53.6438 3.34672 8.21423 -110.319 2.05101 -0.944253 4.12012 -22.0245 -15.3655 -7.48231 0.0898948 -16.4332 -12.1044 
-11.1388 89.6987 47.437 83.2752 -31.0872 82.5055 -171.467 5.3011 94.8489 -23.3709 2.27774 -4.36221 65.8368 3.64745 16.7542 35.5056 2.91452 10.6708 174.82 37.9446 82.9956 -42.877 -0.792482 0.549337 64.5581 -4.76413 4.04776 31.454 -2.12936 1.92863 -0.216489 7.13227 -89.6183 12.6099 -0.247763 0.793704 0.93871 -0.212591 0.803835 -21.5953 -0.47485 0.682546 -1.5827 -0.474838 0.682544 95.8014 -49.6615 -91.9223 27.0335 27.865 -44.0284 -9.17856 -11.3009 -126.085 -11.1807 -1.42883 13.0221 -93.9815 -48.4399 72.37 -12.4571 1.93101 -46.1766 6.60762 4.36197 -117.088 -0.163461 -2.19734 8.12939 -21.3159 -12.8952 -4.17151 2.95821 -13.8046 -8.8402 
-10.8574 88.9725 47.3317 79.9778 -40.4889 79.2093 -169.761 4.36336 93.5774 -23.9408 1.05328 -7.16507 66.1312 4.46771 17.7429 36.7392 4.54465 11.0497 -179.599 42.9042 82.8029 -45.7846 -5.4022 -1.62629 64.0193 -4.97308 10.3317 31.3367 -0.931649 -1.52256 -0.818168 7.45261 -89.7293 11.9728 -1.49891 0.70581 0.30246 -1.4664 0.771095 -22.2393 -1.64171 0.222581 -2.22663 -1.64171 0.22258 96.0194 -49.4899 -91.6048 23.0926 7.83726 -41.8909 -7.67335 -5.05715 -131.022 -10.0941 -1.01752 12.6839 -92.821 -45.2967 73.2433 -15.1153 -10.6872 -45.3754 6.85159 10.3652 -117.59 -0.0842345 -3.31353 13.687 -18.2016 -9.84761 -2.9087 4.3293 -10.25 -3.27118 
-10.7612 87.1426 46.9853 77.9597 -47.1849 77.8405 -167.251 6.20635 93.5305 -32.9412 7.12926 -7.74673 66.9191 8.14816 17.6981 38.9658 6.69277 13.3367 -173.091 45.3124 83.1788 -46.1458 -12.4154 -4.29581 62.8004 -2.94297 4.32633 31.7003 -0.964423 -2.03057 -1.56868 8.16435 -89.9542 10.5527 -3.10365 0.364161 -1.11464 -3.0846 0.500536 -23.6788 -3.06946 -0.58635 -3.66616 -3.06945 -0.586358 95.8032 -49.1295 -91.988 20.5976 -7.3566 -41.0142 -4.66889 -1.6032 -133.826 -8.05042 -0.332328 11.1217 -92.3881 -42.1577 73.0136 -17.4375 -26.9513 -59.6742 0.214658 31.7482 -87.4639 4.2634 -2.36245 14.5408 -13.4431 -7.02605 -1.75741 4.68786 -6.94496 1.05874 
-10.6329 84.3976 47.2937 74.3737 -49.8765 76.7589 -165.958 11.03 95.4045 -44.4256 13.7637 -5.88074 67.9894 11.0423 17.4813 40.2652 7.63471 15.4671 -170.057 49.0395 85.1508 -50.4293 -16.2158 -5.07366 66.2714 -5.04586 -2.94558 30.9585 -0.0522683 -3.41262 -2.31895 8.66088 -90.3292 9.55326 -4.7718 -0.289798 -2.10893 -4.77993 -0.0790326 -24.7075 -4.46369 -1.71335 -4.69485 -4.46368 -1.71336 95.3474 -50.1036 -92.5695 18.9829 -16.5015 -41.2303 -3.12674 -0.824299 -133.901 -5.73046 0.564435 11.3339 -93.4842 -40.2712 70.6487 31.2842 1.59611 -61.6556 21.5323 -33.9883 -48.2228 -7.15636 -2.76667 5.13862 -11.7591 -5.58619 -2.33755 4.98816 -5.27761 2.91923 
-9.72013 82.489 47.7337 68.5889 -51.5828 73.5714 -167.282 13.3384 96.2285 -46.7569 17.6512 -3.83273 67.7261 12.8385 21.1436 42.1881 10.8783 14.8719 -169.104 54.186 86.6121 -54.0755 -12.7828 -4.68749 69.026 -7.17787 -2.29502 31.0458 -0.225752 -3.07149 -2.97584 8.84576 -90.6394 9.16762 -6.22135 -0.82284 -2.48854 -6.25151 -0.547172 -25.1257 -5.68561 -2.66027 -5.11303 -5.68561 -2.66027 95.335 -50.0156 -92.6022 14.7257 -23.3126 -43.3632 2.79468 -3.69565 -129.885 -4.48002 0.894651 9.99032 -91.6022 -32.6932 71.2301 61.0453 8.79874 -69.324 10.3007 -33.833 -1.53425 -10.0487 -2.78559 2.44077 -10.2695 -4.74674 -5.18604 2.00876 -4.24904 4.63304 
-7.89673 80.5225 48.0444 63.3796 -58.1598 69.517 -166.363 10.8892 95.5656 -47.8766 18.5224 -4.28337 69.14 16.725 23.3148 41.9166 9.62698 16.7629 -170.216 58.2831 89.9289 -59.3837 -15.435 -3.78092 69.9079 -7.84534 -3.34394 32.5072 -1.85978 -0.688113 -2.94094 9.24962 -90.7124 8.346 -6.18257 -1.03515 -3.31044 -6.22212 -0.760996 -25.9429 -5.58486 -2.85072 -5.93026 -5.58486 -2.85071 97.3093 -48.744 -89.6638 11.1318 -26.5931 -47.3004 -2.0705 -2.72397 -126.48 -4.58813 0.83931 9.81047 -88.9757 -27.0825 74.3478 56.7507 17.1293 -66.7439 19.8844 -51.0241 1.5168 -11.8176 -3.83231 4.80785 -9.91984 -3.74237 -4.51645 3.75178 -3.05128 6.50825 
-5.99763 79.5046 48.4485 59.0172 -64.8094 64.0542 -165.807 7.20889 92.5633 -47.292 18.1077 -5.70422 68.6587 16.1999 26.6311 42.3429 10.2053 16.9642 -174.158 59.8801 93.9513 -63.0444 -15.5739 -2.53451 70.9435 -8.77493 -3.45501 30.8449 -1.73314 1.68927 -2.80015 9.58978 -90.116 7.70808 -5.64128 0.070308 -3.95052 -5.63268 0.319321 -26.5793 -5.40081 -1.63346 -6.56669 -5.4008 -1.63344 94.3911 -49.6435 -94.1114 14.6369 -24.8357 -43.1198 -1.89917 -5.20056 -126.14 -4.76074 0.743817 9.47463 -88.0499 -32.0088 77.5337 32.0474 12.9077 -60.7846 34.9986 -48.889 -4.12879 -14.855 -2.26484 -1.57654 -11.8279 -1.13795 -2.87275 4.00546 -0.69272 4.76299 
-4.55612 79.3737 49.2116 56.4374 -66.5706 59.7227 -165.907 5.20645 90.0556 -45.7429 17.8326 -6.90875 68.1525 15.0949 26.6137 42.2729 9.9257 17.3379 -176.607 60.0929 94.2453 -64.6824 -15.5676 -1.95358 71.7402 -9.34449 -3.8896 30.8714 -2.03089 2.56293 -2.52967 9.64094 -89.9681 7.59677 -5.03667 0.316366 -4.06457 -5.01784 0.538297 -26.6749 -4.89835 -1.21576 -6.66221 -4.89836 -1.21575 92.583 -49.6628 -96.9217 17.7208 -19.4349 -37.4802 0.486199 -6.19924 -126.744 -6.43851 0.110002 9.07589 -89.5111 -37.3976 76.4705 -14.5624 -15.6856 -55.6695 8.76087 -10.4994 -42.8736 13.862 1.70374 -1.56897 -16.3205 -0.710307 -2.82677 5.62505 -0.316645 4.89559 
-3.64787 79.8029 50.1895 53.2131 -65.8146 57.4568 -166.214 5.8965 90.4369 -45.1328 16.563 -6.54795 67.7776 13.7735 24.8968 43.0588 11.7281 16.0405 -177.519 60.4209 94.9232 -63.8107 -13.8638 -1.42933 72.108 -9.62963 -3.54093 31.7094 -2.87343 3.82724 -1.99271 9.52173 -90.6364 7.81805 -4.25599 -1.02569 -3.84607 -4.29701 -0.837058 -26.4243 -3.75068 -2.25883 -6.41168 -3.7507 -2.25884 94.7864 -47.6753 -93.7886 19.8551 -12.8518 -37.1868 -4.45837 -3.93815 -127.225 -6.1181 0.365947 10.7334 -98.4754 -50.2471 66.3327 -36.312 -41.7648 -57.3839 -3.4472 27.1298 -70.4863 28.4967 3.907 4.62958 -21.5328 -2.37541 -1.44356 9.54937 -1.65322 6.72193 
-3.40343 80.4195 50.9181 55.8614 -63.5105 60.0234 -167.268 6.34197 91.7315 -44.8758 18.2586 -5.49961 66.6787 10.826 23.6944 44.7049 14.6813 14.7794 -177.658 59.9138 93.6802 -63.9078 -15.0308 -1.53672 71.4163 -9.03015 -4.47129 32.4011 -2.97125 3.00114 -1.7835 9.45746 -90.9342 7.92794 -3.96845 -1.62646 -3.73777 -4.03617 -1.45001 -26.3008 -3.29622 -2.74467 -6.2881 -3.29621 -2.74468 95.601 -46.5151 -92.659 22.6789 -6.92873 -40.5543 -5.78023 -4.63966 -125.929 -5.95379 0.473949 11.3289 -106.357 -56.977 57.9097 -31.5844 -46.7272 -46.3083 -1.97028 32.2855 -97.3323 29.7558 4.33543 7.85564 -24.2647 -3.06731 -0.397861 10.4118 -2.27495 6.75506 
